<?xml version="1.0" encoding="utf-8"?>
<!-- Generator: Adobe Illustrator 16.0.0, SVG Export Plug-In . SVG Version: 6.00 Build 0)  -->
<!DOCTYPE svg PUBLIC "-//W3C//DTD SVG 1.1//EN" "http://www.w3.org/Graphics/SVG/1.1/DTD/svg11.dtd">
<svg version="1.1" id="Layer_1" xmlns="http://www.w3.org/2000/svg" xmlns:xlink="http://www.w3.org/1999/xlink" x="0px" y="0px"
	 width="15.489px" height="15.11px" viewBox="0 0 15.489 15.11" enable-background="new 0 0 15.489 15.11" xml:space="preserve">
<g>
	<path fill="#323332" d="M41.617,12.545c0,2.05,1.678,3.729,3.729,3.729h18.226c2.049,0,3.727-1.679,3.727-3.729V-5.681
		c0-2.051-1.678-3.729-3.727-3.729H45.346c-2.051,0-3.729,1.678-3.729,3.729V12.545z"/>
	<g>
		<g>
			<path fill="#FFFFFF" d="M7.31,9.944V8.786C7.22,9.168,7.22,9.563,7.31,9.944z"/>
			<path fill="#FFFFFF" d="M4.366,10.713c0.305,0.07,0.621,0.126,0.948,0.171c-0.1-0.287-0.168-0.58-0.209-0.877
				c-0.38-0.066-0.75-0.151-1.097-0.255C3.785,9.012,3.646,8.184,3.61,7.311h1.922C5.675,7.02,5.847,6.741,6.05,6.481H3.609
				c0.033-0.885,0.173-1.726,0.398-2.474c0.748-0.226,1.589-0.366,2.474-0.399v2.393c0.254-0.247,0.533-0.46,0.828-0.64V3.609
				c0.873,0.036,1.703,0.177,2.441,0.398c0.064,0.218,0.121,0.446,0.174,0.678c0.297,0.012,0.59,0.049,0.877,0.116
				c-0.027-0.147-0.055-0.292-0.088-0.435c0.635,0.287,2.301,1.317,3.059,2.613c0-0.033,0.004-0.066,0.004-0.099
				c0-3.794-3.088-6.88-6.881-6.88C6.892,0,6.89,0,6.886,0C6.884,0,6.882,0,6.88,0c-0.01,0-0.018,0.001-0.027,0.001
				c-3.656,0.021-6.647,2.912-6.828,6.53C0.01,6.646,0,6.763,0,6.88s0.01,0.233,0.025,0.348c0.182,3.619,3.172,6.507,6.828,6.53
				c0.01,0.001,0.018,0.001,0.027,0.001c0.002,0,0.004,0,0.006,0c0.004,0,0.006,0,0.01,0c0.346,0,0.686-0.025,1.018-0.075
				C7.386,13.461,5.167,12.794,4.366,10.713z M12.417,4.414c-0.537-0.434-1.215-0.799-1.998-1.074
				c-0.271-0.776-0.635-1.449-1.063-1.985C10.716,1.963,11.81,3.056,12.417,4.414z M7.31,0.886c0.826,0.211,1.566,1.012,2.084,2.159
				c-0.65-0.147-1.35-0.24-2.084-0.266V0.886z M6.482,0.878v1.9C5.734,2.802,5.025,2.895,4.366,3.044
				C4.891,1.882,5.642,1.075,6.482,0.878z M4.385,1.378C3.964,1.909,3.609,2.574,3.34,3.34C2.581,3.606,1.92,3.958,1.392,4.374
				C1.996,3.051,3.063,1.984,4.385,1.378z M3.045,4.366c-0.15,0.659-0.242,1.369-0.267,2.115H0.879
				C1.076,5.643,1.883,4.891,3.045,4.366z M2.779,7.311c0.025,0.734,0.118,1.435,0.266,2.083C1.897,8.875,1.097,8.136,0.886,7.311
				H2.779z M1.392,9.384c0.528,0.417,1.189,0.769,1.948,1.037c0.27,0.763,0.624,1.43,1.045,1.961
				C3.063,11.776,1.996,10.708,1.392,9.384z"/>
		</g>
		<g>
			<g>
				<path fill="#FFFFFF" d="M15.195,13.391c0.393,0.395,0.393,1.032,0,1.425l0,0c-0.395,0.393-1.033,0.393-1.426,0l-2.848-2.848
					c-0.393-0.393,1.031-1.817,1.426-1.424L15.195,13.391z"/>
			</g>
			<g>
				<path fill="#FFFFFF" d="M9.742,13.046c-0.982,0-1.908-0.383-2.602-1.078c-1.436-1.435-1.436-3.771,0-5.205
					c0.693-0.696,1.619-1.079,2.602-1.079c0.984,0,1.908,0.383,2.604,1.079c1.436,1.434,1.436,3.77,0,5.205
					C11.65,12.663,10.726,13.046,9.742,13.046z M9.742,7.4c-0.523,0-1.018,0.204-1.389,0.575c-0.766,0.766-0.766,2.014,0,2.781
					c0.371,0.37,0.865,0.575,1.389,0.575c0.527,0,1.02-0.205,1.391-0.575C11.9,9.988,11.9,8.741,11.134,7.975
					C10.761,7.604,10.269,7.4,9.742,7.4z"/>
			</g>
			<path fill="#FFFFFF" d="M9.742,7.4c0.527,0,1.02,0.204,1.393,0.575c0.766,0.766,0.766,2.014-0.002,2.781
				c-0.371,0.37-0.863,0.575-1.391,0.575c-0.523,0-1.018-0.205-1.389-0.575c-0.766-0.768-0.766-2.015,0-2.781
				C8.724,7.604,9.218,7.4,9.742,7.4"/>
		</g>
	</g>
</g>
</svg>
